<?xml version="1.0" encoding="UTF-8"?>
<!DOCTYPE svg PUBLIC "-//W3C//DTD SVG 1.1//EN" "http://www.w3.org/Graphics/SVG/1.1/DTD/svg11.dtd">
<!-- Creator: CorelDRAW X7 -->
<svg xmlns="http://www.w3.org/2000/svg" xml:space="preserve" width="270mm" height="70mm" version="1.1" style="shape-rendering:geometricPrecision; text-rendering:geometricPrecision; image-rendering:optimizeQuality; fill-rule:evenodd; clip-rule:evenodd"
viewBox="0 0 27000 7000"
 xmlns:xlink="http://www.w3.org/1999/xlink">
 <defs>
  <style type="text/css">
   <![CDATA[
    .fil5 {fill:#4B4B4D}
    .fil2 {fill:#F58634}
    .fil1 {fill:#ED2F59}
    .fil4 {fill:#A53692}
    .fil3 {fill:#00A859}
    .fil0 {fill:#0098DA}
   ]]>
  </style>
 </defs>
 <g id="Camada_x0020_1">
  <metadata id="CorelCorpID_0Corel-Layer"/>
  <path class="fil0" d="M857 317l2543 0 0 1202c-966,76 -1737,846 -1813,1812l-1203 0 0 -2541c0,-260 213,-473 473,-473z"/>
  <path class="fil1" d="M3713 317l2544 0c260,0 473,213 473,473l0 2541 -1203 0c-77,-966 -848,-1736 -1814,-1812l0 -1202z"/>
  <path class="fil2" d="M384 3645l1202 0c75,967 847,1739 1814,1815l0 1199 -2543 0c-260,0 -473,-213 -473,-473l0 -2541z"/>
  <path class="fil3" d="M5527 3645l1203 0 0 2541c0,260 -213,473 -473,473l-2544 0 0 -1199c968,-76 1739,-848 1814,-1815z"/>
  <path class="fil4" d="M3557 1827c918,0 1662,745 1662,1663 0,918 -744,1662 -1662,1662 -918,0 -1662,-744 -1662,-1662 0,-918 744,-1663 1662,-1663zm667 1550c21,0 42,-6 62,-17 42,-23 66,-67 67,-111 0,-22 -6,-43 -16,-63l-468 -812c-23,-43 -67,-66 -112,-66 -22,0 -43,5 -62,16 -43,23 -67,67 -67,112 0,21 5,43 16,62l467 812c24,43 68,67 113,67zm-1397 -17c19,11 41,16 62,16 45,0 89,-23 112,-66l468 -812c11,-19 16,-41 16,-62 -1,-45 -24,-89 -67,-112 -20,-11 -41,-16 -62,-16 -45,0 -89,23 -113,66l-467 812c-11,20 -16,41 -16,62 0,45 24,89 67,112zm1929 -165l-292 0c23,104 -23,215 -121,269 -36,20 -77,31 -119,31 -90,0 -173,-49 -216,-128 1,2 -100,-172 -100,-172l-703 0 -100 173c-44,79 -127,127 -216,127 -42,0 -83,-11 -120,-31 -57,-32 -99,-84 -118,-148 -11,-40 -11,-81 -3,-121l-291 0c-71,0 -129,58 -129,129 0,71 58,129 129,129l42 0c0,6 1,12 3,18l255 959c21,81 107,147 191,147l44 0c0,0 0,21 0,47 0,26 28,47 61,47l342 0c33,0 60,-21 60,-47l0 -47 441 0c0,0 0,21 0,47 0,26 27,47 60,47l342 0c33,0 61,-21 61,-47l0 -47 7 0c83,0 169,-66 191,-147l255 -959c2,-6 2,-12 3,-18l41 0c72,0 130,-58 130,-129 0,-71 -58,-129 -130,-129zm-1740 1119c0,40 -33,73 -73,73 -41,0 -74,-33 -74,-73l0 -557c0,-40 33,-73 74,-73 40,0 73,33 73,73l0 557zm409 0c0,40 -32,73 -73,73 -40,0 -73,-33 -73,-73l0 -557c0,-40 33,-73 73,-73 41,0 73,33 73,73l0 557zm410 0c0,40 -33,73 -73,73 -41,0 -74,-33 -74,-73l0 -557c0,-40 33,-73 74,-73 40,0 73,33 73,73l0 557zm409 0c0,40 -32,73 -73,73 -40,0 -73,-33 -73,-73l0 -557c0,-40 33,-73 73,-73 41,0 73,33 73,73l0 557z"/>
  <path class="fil0" d="M11103 3229c0,124 -97,261 -292,416 -195,154 -555,231 -1083,231 -526,0 -960,-163 -1301,-491 -340,-328 -510,-758 -510,-1288 0,-531 169,-960 508,-1290 339,-329 776,-494 1310,-494 534,0 896,77 1085,232 189,153 283,292 283,415 0,122 -41,232 -121,328 -82,95 -171,143 -268,143 -98,0 -252,-37 -464,-112 -210,-74 -368,-112 -473,-112 -569,0 -854,296 -854,888 0,590 285,886 854,886 105,0 263,-37 473,-112 212,-74 366,-112 464,-112 97,0 186,49 268,144 80,96 121,205 121,328zm1978 616c261,0 391,-134 391,-403l0 -404 -1108 0 0 -509 615 0c261,0 392,-135 392,-407l0 -406 -1007 0 0 -493 717 0c261,0 391,-135 391,-404l0 -405 -2114 0 0 3431 1723 0zm2719 -1900l0 -1088c0,-295 168,-443 503,-443l503 0 0 2990c0,294 -168,441 -503,441 -187,0 -334,-64 -443,-192l-1127 -1342 0 1093c0,294 -169,441 -504,441l-503 0 0 -3428 503 -3c216,-1 369,68 463,209l1108 1322zm3143 -722l0 2185c0,295 -167,442 -503,442l-503 0 0 -2627 -508 0c-271,0 -406,-135 -406,-404l0 -405 2434 0c271,0 407,136 407,405 0,269 -136,404 -407,404l-514 0zm3245 1164l458 625c124,147 183,281 178,400 -5,120 -66,227 -182,321 -116,96 -238,141 -367,137 -129,-5 -260,-84 -394,-238l-795 -1088 0 860c0,294 -168,441 -503,441l-503 0 0 -3431 503 0 1138 0c281,0 515,109 702,325 186,216 279,447 279,695 0,442 -171,760 -514,953zm-1102 -1281l0 783 290 0c284,0 426,-131 426,-392 0,-260 -142,-391 -426,-391l-290 0zm5530 991c0,530 -172,960 -516,1288 -344,328 -779,491 -1307,491 -526,0 -960,-163 -1301,-491 -340,-328 -510,-758 -510,-1288 0,-531 169,-960 508,-1290 339,-329 776,-494 1310,-494 535,0 971,165 1308,494 339,330 508,759 508,1290zm-1205 -638c-152,-168 -356,-252 -610,-252 -254,0 -458,85 -612,254 -155,168 -231,380 -231,637 0,257 76,469 231,634 154,167 358,249 611,249 254,0 457,-83 610,-251 154,-168 230,-379 230,-635 0,-256 -76,-468 -229,-636z"/>
  <path class="fil5" d="M8678 6663l-645 -1598 -10 0c7,97 10,198 10,300l0 1298 -116 0 0 -1731 187 0 613 1522 7 0 613 -1522 183 0 0 1731 -122 0 0 -1312c0,-91 4,-186 14,-284l-10 0 -647 1596 -77 0zm2954 24c-187,0 -333,-58 -437,-173 -105,-115 -157,-277 -157,-484 0,-205 50,-370 151,-493 101,-124 237,-186 409,-186 151,0 271,53 359,158 87,105 131,249 131,429l0 95 -927 0c1,177 42,313 124,407 80,94 196,140 347,140 74,0 138,-5 194,-15 55,-10 126,-32 211,-66l0 106c-73,32 -140,53 -201,65 -62,11 -130,17 -204,17zm-34 -1234c-124,0 -224,41 -299,123 -75,82 -119,200 -131,355l795 0c0,-150 -32,-267 -97,-351 -64,-85 -154,-127 -268,-127zm2484 -102c55,0 113,6 176,17l-23 113c-54,-14 -109,-20 -167,-20 -109,0 -199,46 -269,139 -71,93 -106,211 -106,353l0 710 -117 0 0 -1287 100 0 11 232 9 0c53,-95 109,-161 169,-199 60,-39 133,-58 217,-58zm2036 1336c-184,0 -327,-58 -432,-174 -104,-116 -156,-278 -156,-485 0,-214 54,-380 162,-498 108,-119 256,-179 444,-179 111,0 218,20 320,59l-32 104c-112,-37 -208,-56 -290,-56 -158,0 -278,49 -359,146 -81,98 -122,238 -122,421 0,174 41,310 122,408 81,98 195,147 341,147 117,0 225,-21 325,-62l0 108c-82,41 -190,61 -323,61zm2554 -24l-30 -204 -9 0c-65,83 -132,142 -200,176 -68,35 -149,52 -242,52 -126,0 -224,-32 -295,-97 -70,-65 -105,-154 -105,-269 0,-126 52,-223 157,-292 105,-70 256,-107 454,-110l245 -8 0 -85c0,-122 -25,-214 -74,-277 -50,-62 -131,-93 -241,-93 -119,0 -243,33 -371,99l-43 -102c141,-66 280,-99 419,-99 141,0 246,37 316,110 70,73 105,188 105,343l0 856 -86 0zm-474 -83c137,0 246,-39 325,-118 79,-78 119,-187 119,-327l0 -127 -225 10c-181,9 -309,37 -386,85 -77,47 -116,122 -116,223 0,80 25,143 74,187 49,45 119,67 209,67zm3008 83l0 -834c0,-130 -28,-224 -82,-283 -54,-58 -139,-88 -254,-88 -153,0 -266,39 -337,117 -72,77 -108,204 -108,378l0 710 -117 0 0 -1287 100 0 22 177 7 0c84,-134 233,-202 447,-202 291,0 438,157 438,470l0 842 -116 0zm2005 -78c75,0 139,-6 195,-19l0 93c-57,19 -123,28 -197,28 -114,0 -197,-30 -251,-91 -55,-61 -82,-157 -82,-287l0 -831 -190 0 0 -69 190 -53 59 -291 61 0 0 311 378 0 0 102 -378 0 0 816c0,99 17,173 52,220 35,47 89,71 163,71zm1723 78l-117 0 0 -1287 117 0 0 1287zm-133 -1644c0,-76 25,-114 74,-114 25,0 44,10 58,30 13,20 20,48 20,84 0,35 -7,63 -20,84 -14,20 -33,30 -58,30 -49,0 -74,-38 -74,-114zm1815 1644l-117 0 0 -1842 117 0 0 1842z"/>
 </g>
</svg>
